Coordinates
version=1
nRows=5
nColumns=46
inDegrees=yes

Units are S.I. units (second, meters, Newtons, ...)
Angles are in degrees.

endheader
time	pelvis_tilt	pelvis_list	pelvis_rotation	pelvis_tx	pelvis_ty	pelvis_tz	bb_angle	bb_tx	bb_ty	bb_tz	hip_flexion_r	hip_adduction_r	hip_rotation_r	knee_angle_r	knee_angle_r_beta	ankle_angle_r	subtalar_angle_r	mtp_angle_r	crank_angle_r	hip_flexion_l	hip_adduction_l	hip_rotation_l	knee_angle_l	knee_angle_l_beta	ankle_angle_l	subtalar_angle_l	mtp_angle_l	crank_angle_l	lumbar_extension	lumbar_bending	lumbar_rotation	arm_flex_r	arm_add_r	arm_rot_r	elbow_flex_r	pro_sup_r	wrist_flex_r	wrist_dev_r	arm_flex_l	arm_add_l	arm_rot_l	elbow_flex_l	pro_sup_l	wrist_flex_l	wrist_dev_l
      2.50000000	    -31.32552280	      2.49816048	      7.43224208	      0.24522994	      1.06496536	     -0.21334063	      0.00000000	      0.50000000	      0.00000000	      0.25000000	     60.15333896	     -8.78366182	      3.66064753	     42.82514411	      0.74743977	    -12.26924890	    -14.43365714	      0.00000000	      0.00000000	     62.50480305	     -2.59739576	      0.97009013	     85.32426635	      1.48918938	     -8.98771486	     -5.70177348	      0.00000000	      0.00000000	    -45.54383769	      8.79280175	      2.37105878	     54.99490430	    -14.04060275	     20.15197628	     80.82636087	     51.27298371	      0.00000000	      0.00000000	     69.79915736	    -17.65524689	     45.50598849	     52.12652634	     48.59543926	      0.00000000	      0.00000000
      2.50500000	    -31.14296171	      2.88934124	      7.63599962	      0.24597996	      1.06281080	     -0.21273029	      0.00000000	      0.50000000	      0.00000000	      0.25000000	     59.16836000	     -9.20769689	      3.63399472	     41.76916723	      0.72900949	    -13.02809011	    -13.92628535	      0.00000000	      0.00000000	     63.18589772	     -2.68574632	      0.60611198	     87.05097065	      1.51932605	     -7.84478155	     -5.50593013	      0.00000000	      0.00000000	    -45.19222702	      8.01947750	      1.89545055	     54.16398651	    -14.98657944	     20.31487255	     80.61141392	     51.26264985	      0.00000000	      0.00000000	     69.73635347	    -17.20450349	     45.65171646	     52.06347750	     48.60687821	      0.00000000	      0.00000000
      2.51000000	    -30.98100774	      3.29251163	      7.68632820	      0.24675254	      1.06030079	     -0.21172187	      0.00000000	      0.50000000	      0.00000000	      0.25000000	     58.30496201	     -9.47960322	      3.66283752	     40.94465808	      0.71461909	    -13.60961263	    -13.80380208	      0.00000000	      0.00000000	     63.95115585	     -3.09658687	      0.15715054	     88.89871287	      1.55157524	     -6.21511322	     -3.45738923	      0.00000000	      0.00000000	    -44.92628505	      7.01760857	      2.53985183	     53.33878023	    -17.72352518	     21.09455820	     81.00861349	     51.41159097	      0.00000000	      0.00000000	     69.86354993	    -15.45414180	     46.04460336	     51.49672359	     48.57304845	      0.00000000	      0.00000000
      2.51500000	    -30.70819451	      3.69846645	      7.87121821	      0.24759908	      1.05816662	     -0.21130385	      0.00000000	      0.50000000	      0.00000000	      0.25000000	     57.24006780	     -9.96495502	      3.44824575	     40.03184291	      0.69868746	    -14.00104485	    -13.52309055	      0.00000000	      0.00000000	     64.62592886	     -3.25865422	     -0.22467310	     90.64922907	      1.58212751	     -5.43127605	     -2.81136807	      0.00000000	      0.00000000	    -44.90199349	      6.24390826	      3.27843744	     52.08738921	    -21.41462113	     22.39701698	     83.69290255	     51.95203631	      0.00000000	      0.00000000	     70.60639148	    -12.97695352	     46.40950253	     48.73547906	     48.22262774	      0.00000000	      0.00000000
      2.52000000	    -30.54560274	      4.18681857	      7.90468518	      0.24845034	      1.05579160	     -0.21004523	      0.00000000	      0.50000000	      0.00000000	      0.25000000	     56.36681339	    -10.30339801	      3.45972960	     39.25237636	      0.68508321	    -14.42391874	    -13.24180859	      0.00000000	      0.00000000	     65.38046694	     -3.61434587	     -0.70417597	     92.34174537	      1.61166749	     -4.68504482	     -1.74323182	      0.00000000	      0.00000000	    -44.74241002	      5.12609497	      3.65993061	     50.63710067	    -23.10426730	     21.58890837	     84.79840661	     51.96879599	      0.00000000	      0.00000000	     71.00106098	    -11.48144541	     47.01179344	     47.51980809	     48.22782095	      0.00000000	      0.00000000
